<?xml version="1.0" encoding="UTF-8"?>
<svg id="Layer_1" data-name="Layer 1" xmlns="http://www.w3.org/2000/svg" viewBox="0 0 1492.97 1292.98">
  <defs>
    <style>
      .cls-1 {
        fill: #fff;
      }
    </style>
  </defs>
  <polygon class="cls-1" points="373.24 195.1 568.34 0 1492.97 0 1380.3 195.1 1297.87 337.88 1155.09 195.1 373.24 195.1"/>
  <polygon class="cls-1" points="521.21 902.78 746.48 902.78 747.3 904.09 748.05 902.78 762.44 877.74 1142.07 217.82 1284.78 360.54 986.21 877.74 971.76 902.78 859.15 1097.88 746.48 1292.98 634.82 1099.57 521.21 902.78"/>
  <polygon class="cls-1" points="0 0 532.6 0 337.5 195.1 337.94 195.1 350.83 217.51 350.9 217.51 732.02 877.74 506.75 877.74 208.06 360.35 194.91 337.69 112.67 195.1 0 0"/>
</svg>